<svg id="Capa_1" data-name="Capa 1" xmlns="http://www.w3.org/2000/svg" xmlns:xlink="http://www.w3.org/1999/xlink" viewBox="0 0 462 327"><defs><style>.cls-1{fill:none;}.cls-2{clip-path:url(#clip-path);}.cls-3{fill:#2f8951;}.cls-4{fill:#f6a13b;}.cls-5{fill:#ea554d;}</style><clipPath id="clip-path"><rect class="cls-1" x="-35" y="-95.58" width="538.58" height="538.58"/></clipPath></defs><g class="cls-2"><path class="cls-3" d="M230.91,82.41a1.62,1.62,0,0,1-3.23,0V14.78L169.2,24.44V228.27l120.19-7.06V4.58l-58.48,9.66Zm-1.62,81.35A17.34,17.34,0,0,1,212,146.42h34.67a17.34,17.34,0,0,1-17.34,17.34m15.25-55.64,23.26,33.06a1.6,1.6,0,0,1,.12,1.67,1.63,1.63,0,0,1-1.44.87H192.1a1.62,1.62,0,0,1-1.43-.87,1.6,1.6,0,0,1,.11-1.67l23.27-33.06a1.62,1.62,0,0,1,1.32-.69h27.85a1.64,1.64,0,0,1,1.32.69m-7.37-4.18a1.62,1.62,0,0,1-1.62,1.61H223a1.61,1.61,0,0,1-1.62-1.61V94.41a7.88,7.88,0,0,1,15.75,0Z"/><path class="cls-3" d="M229.29,89.77a4.64,4.64,0,0,0-4.64,4.64v7.91h9.29V94.41a4.65,4.65,0,0,0-4.65-4.64"/><polygon class="cls-3" points="263.37 140.49 242.38 110.66 216.21 110.66 195.21 140.49 263.37 140.49"/><path class="cls-4" d="M91.4,193.33A50.43,50.43,0,0,0,127.62,145v-5.78a11.6,11.6,0,0,0-23.2,0V145a27.21,27.21,0,0,1-27.19,27.18H56.4v23.2H77.23a50.47,50.47,0,0,0,14.17-2M116,133.59a5.63,5.63,0,1,1-5.62,5.62,5.62,5.62,0,0,1,5.62-5.62"/><path class="cls-4" d="M56.4,90.81H92.91a17.72,17.72,0,0,1,17.71,17.7v8.22a1.62,1.62,0,0,1-3.23,0v-8.22A14.49,14.49,0,0,0,92.91,94H56.4V169H77.23a24,24,0,0,0,24-24v-5.78a14.83,14.83,0,0,1,29.66,0V145a53.32,53.32,0,0,1-25.65,45.72c-.32.2-.66.37-1,.56L103,207.94a1,1,0,0,1-1.05,1H97.73c-.55,0-3.38-7.31-5.32-12.51l-.11,0a53.53,53.53,0,0,1-15.07,2.17H56.4v15.34l100.32,7.27V51.59L56.4,66.61Zm18.81,56.5A2.77,2.77,0,1,1,78,144.54a2.77,2.77,0,0,1-2.76,2.77m0-21.91A2.77,2.77,0,1,1,78,122.63a2.77,2.77,0,0,1-2.76,2.77"/><path class="cls-5" d="M395.08,167.17c-.41,9.34-.82,18.68-1.18,25.68-.67,13.2-.67,13.2-2.42,13.2h-4.23a2.67,2.67,0,0,1-2.66-2.47l-1.49-71.92H363.18c-.81,4.94-3.34,20.32-5.92,35.71-1.57,9.34-3.16,18.67-4.39,25.68-2.29,13-2.29,13-3.85,13h-4.23a2.67,2.67,0,0,1-2.66-2.47,1.41,1.41,0,0,1,0-.29l7.71-72.72v-7.75H336.58a9.07,9.07,0,1,1,0-18.13h65.61v-40L300.9,49.16V214.91l101.29,6.3V131.66h-5.66c-.2,5.15-.81,20.33-1.45,35.51"/><path class="cls-5" d="M345.43,202.82h2.36c1.45-6.84,7.75-44.54,12.12-71.16H353Z"/><path class="cls-5" d="M336.58,107.92a5.84,5.84,0,1,0,0,11.67h65.61V107.92Z"/><path class="cls-5" d="M387.8,202.82h2.28c.61-7.33,2.19-44.78,3.22-71.16h-7Z"/><polygon class="cls-3" points="46.24 289 19.1 289 15.11 311.88 46.68 311.88 45.44 318.84 5.57 318.84 16.79 254.27 56.22 254.27 54.98 261.23 23.89 261.23 20.3 282.03 47.44 282.03 46.24 289"/><path class="cls-3" d="M82.22,288.76q.7-5.1-5.3-7.46l-5.51-2-1.86-.8q-9.31-4.25-8.71-11.93a12.58,12.58,0,0,1,2.65-6.83,15.06,15.06,0,0,1,6.18-4.58,19.75,19.75,0,0,1,8.18-1.51,16.27,16.27,0,0,1,7.51,1.88,12.1,12.1,0,0,1,5,5,13.59,13.59,0,0,1,1.53,7.23l-6,0q.31-4.29-1.91-6.65a8.6,8.6,0,0,0-6.38-2.42,12,12,0,0,0-7.31,2.05,8,8,0,0,0-3.38,5.76q-.64,4.76,5.83,7.22l4.76,1.69,2.39,1q9,4.15,8.33,12.32a12.29,12.29,0,0,1-2.65,6.78,14.8,14.8,0,0,1-6.24,4.42,21.59,21.59,0,0,1-8.47,1.47,17.87,17.87,0,0,1-8-1.87,13,13,0,0,1-5.5-5,12.55,12.55,0,0,1-1.66-7.25l6,0A8,8,0,0,0,64,293.85c1.7,1.63,4.08,2.46,7.17,2.51a12.82,12.82,0,0,0,7.62-2,7.86,7.86,0,0,0,3.48-5.59"/><polygon class="cls-3" points="132.41 259.28 117.95 259.28 110.78 300.73 104.81 300.73 111.99 259.28 97.53 259.28 98.43 254.27 133.3 254.27 132.41 259.28"/><polygon class="cls-3" points="138.6 300.73 132.63 300.73 140.7 254.28 146.67 254.28 138.6 300.73"/><polygon class="cls-3" points="156.62 295.72 178 295.72 177.1 300.73 149.73 300.73 157.81 254.27 163.83 254.27 156.62 295.72"/><path class="cls-3" d="M199.12,301.37a14.94,14.94,0,0,1-7.7-2.14,13.9,13.9,0,0,1-5.16-6,22.74,22.74,0,0,1-2.07-8.91,42.26,42.26,0,0,1,.86-9.54,32.68,32.68,0,0,1,3.64-10.24,23.05,23.05,0,0,1,6.28-7.31,18.06,18.06,0,0,1,11.43-3.57,13.74,13.74,0,0,1,10.72,4.7q3.91,4.57,4.21,12.4a46.4,46.4,0,0,1-.69,8.52,35.37,35.37,0,0,1-2.9,9.6,24,24,0,0,1-5.32,7.43,18.27,18.27,0,0,1-13.3,5.08m16.31-29.16q.18-6.29-2.21-9.75a8.35,8.35,0,0,0-7.11-3.59,12,12,0,0,0-7.64,2.3,17.21,17.21,0,0,0-5.52,7.26,37.19,37.19,0,0,0-2.73,12.23l-.09,2.08q-.19,6.24,2.23,9.79a8.32,8.32,0,0,0,7,3.67,12.31,12.31,0,0,0,10-4.36q4-4.51,5.28-12.68a57.68,57.68,0,0,0,.74-7"/><polygon class="cls-3" points="273.54 318.84 265.2 318.84 270.39 289 238.86 289 233.67 318.84 225.33 318.84 236.55 254.27 244.89 254.27 240.05 282.04 271.54 282.04 276.37 254.27 284.75 254.27 273.54 318.84"/><path class="cls-3" d="M304.53,301.37a14.94,14.94,0,0,1-7.7-2.14,13.81,13.81,0,0,1-5.15-6,22.57,22.57,0,0,1-2.08-8.91,42.34,42.34,0,0,1,.87-9.54,32.67,32.67,0,0,1,3.63-10.24,23,23,0,0,1,6.29-7.31,18,18,0,0,1,11.42-3.57,13.74,13.74,0,0,1,10.72,4.7q3.93,4.57,4.21,12.4a45.4,45.4,0,0,1-.68,8.52,35.38,35.38,0,0,1-2.91,9.6,24,24,0,0,1-5.31,7.43,18.3,18.3,0,0,1-13.31,5.08m16.31-29.16q.2-6.29-2.2-9.75a8.38,8.38,0,0,0-7.12-3.59,12.06,12.06,0,0,0-7.64,2.3,17.37,17.37,0,0,0-5.52,7.26,37.46,37.46,0,0,0-2.72,12.23l-.1,2.08q-.19,6.24,2.23,9.79a8.33,8.33,0,0,0,7.05,3.67,12.3,12.3,0,0,0,10-4.36q4-4.51,5.29-12.68a57.44,57.44,0,0,0,.73-7"/><path class="cls-3" d="M366.11,294.6a14.66,14.66,0,0,1-6.78,5.06,26.52,26.52,0,0,1-10.16,1.71,16,16,0,0,1-8-2.14,14,14,0,0,1-5.35-5.86,21.59,21.59,0,0,1-2.24-8.66,46.36,46.36,0,0,1,.94-10.27,32.19,32.19,0,0,1,4.07-11.2,20.44,20.44,0,0,1,7.26-7.21,19,19,0,0,1,10-2.39q6.48.12,10.32,3.84t4.39,10.45h-5.94a10.61,10.61,0,0,0-2.64-6.79,8.84,8.84,0,0,0-6.35-2.49,12.22,12.22,0,0,0-10,4.31q-4,4.55-5.31,13.26l-.61,4.48-.09,2.43q0,6.28,2.58,9.73a8.74,8.74,0,0,0,7.24,3.5q6.74.15,10.69-3.32L362,282.61H351.53l.9-5h16.33Z"/><path class="cls-3" d="M402,288.57H383.18l-6.35,12.16h-6.41l25.24-46.46h5.26l9.19,46.46h-5.9Zm-16.18-5h15.28l-3.86-21.66Z"/><path class="cls-3" d="M436.53,282H425.81l-3.26,18.76h-6l8.07-46.45,14,0q7.31,0,11.14,3.7t3.22,10a13.27,13.27,0,0,1-3.18,7.7,17.4,17.4,0,0,1-7.51,5l7.21,19.59,0,.42H443Zm-9.86-5,8.81,0a12.29,12.29,0,0,0,7.75-2.44,9.52,9.52,0,0,0,3.7-6.53q.48-4-1.6-6.25c-1.38-1.51-3.49-2.31-6.31-2.39l-9.29,0Z"/></g></svg>