<svg id="Capa_1" data-name="Capa 1" xmlns="http://www.w3.org/2000/svg" xmlns:xlink="http://www.w3.org/1999/xlink" viewBox="0 0 538.58 538.58"><defs><style>.cls-1{fill:none;}.cls-2{clip-path:url(#clip-path);}.cls-3{fill:#2f8951;}.cls-4{fill:#f6a13b;}.cls-5{fill:#ea554d;}</style><clipPath id="clip-path"><rect class="cls-1" width="538.58" height="538.58"/></clipPath></defs><g class="cls-2"><path class="cls-3" d="M265.91,178a1.62,1.62,0,0,1-3.23,0V110.36L204.2,120V323.86l120.19-7.07V100.16l-58.48,9.67Zm-1.62,81.35A17.33,17.33,0,0,1,247,242h34.67a17.34,17.34,0,0,1-17.34,17.34m15.25-55.64,23.26,33.06a1.61,1.61,0,0,1-1.32,2.54H227.1a1.61,1.61,0,0,1-1.32-2.54l23.27-33.06a1.62,1.62,0,0,1,1.32-.69h27.85a1.64,1.64,0,0,1,1.32.69m-7.37-4.18a1.62,1.62,0,0,1-1.62,1.61H258a1.61,1.61,0,0,1-1.62-1.61V190a7.88,7.88,0,0,1,15.75,0Z"/><path class="cls-3" d="M264.29,185.35a4.64,4.64,0,0,0-4.64,4.64v7.92h9.29V190a4.65,4.65,0,0,0-4.65-4.64"/><polygon class="cls-3" points="298.37 236.07 277.38 206.24 251.21 206.24 230.21 236.07 298.37 236.07"/><path class="cls-4" d="M126.4,288.91a50.43,50.43,0,0,0,36.22-48.34v-5.78a11.6,11.6,0,0,0-23.2,0v5.78a27.22,27.22,0,0,1-27.19,27.19H91.4V291h20.83a50.11,50.11,0,0,0,14.17-2M151,229.17a5.63,5.63,0,1,1-5.62,5.62,5.62,5.62,0,0,1,5.62-5.62"/><path class="cls-4" d="M91.4,186.39h36.51a17.72,17.72,0,0,1,17.71,17.71v8.21a1.62,1.62,0,0,1-3.23,0V204.1a14.5,14.5,0,0,0-14.48-14.48H91.4v74.91h20.83a24,24,0,0,0,24-24v-5.78a14.83,14.83,0,0,1,29.66,0v5.78a53.31,53.31,0,0,1-25.65,45.72c-.32.2-.66.37-1,.56L138,303.52a1.06,1.06,0,0,1-1,1h-4.23c-.55,0-3.38-7.32-5.32-12.52l-.11,0a53.53,53.53,0,0,1-15.07,2.17H91.4v15.34l100.32,7.27V147.17l-100.32,15Zm18.81,56.5a2.77,2.77,0,1,1,2.76-2.76,2.77,2.77,0,0,1-2.76,2.76m0-21.91a2.77,2.77,0,1,1,2.76-2.77,2.77,2.77,0,0,1-2.76,2.77"/><path class="cls-5" d="M430.08,262.75c-.41,9.34-.82,18.68-1.18,25.69-.67,13.2-.67,13.2-2.42,13.2h-4.23a2.68,2.68,0,0,1-2.66-2.48l-1.49-71.92H398.18c-.81,4.94-3.34,20.32-5.92,35.71-1.57,9.34-3.16,18.68-4.39,25.68-2.29,13-2.29,13-3.85,13h-4.23a2.68,2.68,0,0,1-2.66-2.48,1.4,1.4,0,0,1,0-.29l7.71-72.71V218.4H371.58a9.06,9.06,0,1,1,0-18.12h65.61v-40L335.9,144.75V310.49l101.29,6.3V227.24h-5.66c-.2,5.15-.81,20.33-1.45,35.51"/><path class="cls-5" d="M380.43,298.41h2.36c1.45-6.84,7.75-44.54,12.12-71.17H388Z"/><path class="cls-5" d="M371.58,203.51a5.83,5.83,0,1,0,0,11.66h65.61V203.51Z"/><path class="cls-5" d="M422.8,298.41h2.28c.61-7.34,2.19-44.78,3.22-71.17h-7Z"/><polygon class="cls-3" points="81.24 384.58 54.1 384.58 50.11 407.46 81.68 407.46 80.44 414.42 40.57 414.42 51.79 349.86 91.22 349.86 89.98 356.82 58.89 356.82 55.3 377.62 82.44 377.62 81.24 384.58"/><path class="cls-3" d="M117.22,384.35q.7-5.12-5.3-7.47l-5.51-2-1.86-.79q-9.31-4.26-8.71-11.94a12.58,12.58,0,0,1,2.65-6.83,15.15,15.15,0,0,1,6.18-4.58,19.75,19.75,0,0,1,8.18-1.51,16.27,16.27,0,0,1,7.51,1.88,12.1,12.1,0,0,1,5,5,13.59,13.59,0,0,1,1.53,7.23l-6,0q.31-4.29-1.91-6.65a8.6,8.6,0,0,0-6.38-2.41,11.89,11.89,0,0,0-7.31,2,7.93,7.93,0,0,0-3.38,5.75q-.64,4.75,5.83,7.22l4.76,1.7,2.39,1q9,4.14,8.33,12.31a12.26,12.26,0,0,1-2.65,6.78,14.71,14.71,0,0,1-6.24,4.42,21.59,21.59,0,0,1-8.47,1.47,17.61,17.61,0,0,1-8-1.87,13,13,0,0,1-5.5-5,12.52,12.52,0,0,1-1.66-7.24l6,0A8,8,0,0,0,99,389.43a10.13,10.13,0,0,0,7.17,2.51,12.82,12.82,0,0,0,7.62-2,7.84,7.84,0,0,0,3.48-5.58"/><polygon class="cls-3" points="167.41 354.87 152.96 354.87 145.78 396.31 139.81 396.31 146.99 354.87 132.53 354.87 133.43 349.86 168.3 349.86 167.41 354.87"/><polygon class="cls-3" points="173.6 396.31 167.63 396.31 175.7 349.86 181.67 349.86 173.6 396.31"/><polygon class="cls-3" points="191.62 391.3 213 391.3 212.1 396.31 184.73 396.31 192.81 349.86 198.83 349.86 191.62 391.3"/><path class="cls-3" d="M234.12,397a14.85,14.85,0,0,1-7.7-2.14,13.87,13.87,0,0,1-5.16-6,22.79,22.79,0,0,1-2.07-8.92,42.3,42.3,0,0,1,.86-9.54,32.68,32.68,0,0,1,3.64-10.24,23.16,23.16,0,0,1,6.28-7.31,18.12,18.12,0,0,1,11.43-3.57,13.71,13.71,0,0,1,10.72,4.71q3.91,4.57,4.21,12.39a46.4,46.4,0,0,1-.69,8.52,35.26,35.26,0,0,1-2.9,9.6,23.9,23.9,0,0,1-5.32,7.44,18.26,18.26,0,0,1-13.3,5.07m16.31-29.16q.18-6.29-2.21-9.75a8.37,8.37,0,0,0-7.11-3.59,12.1,12.1,0,0,0-7.64,2.3A17.34,17.34,0,0,0,228,364a37.19,37.19,0,0,0-2.73,12.23l-.09,2.08q-.19,6.24,2.23,9.79a8.3,8.3,0,0,0,7,3.67,12.28,12.28,0,0,0,10-4.36q4-4.5,5.28-12.68a57.68,57.68,0,0,0,.74-6.95"/><polygon class="cls-3" points="308.54 414.43 300.2 414.43 305.39 384.58 273.86 384.58 268.67 414.43 260.33 414.43 271.55 349.86 279.89 349.86 275.05 377.62 306.54 377.62 311.37 349.86 319.75 349.86 308.54 414.43"/><path class="cls-3" d="M339.53,397a14.85,14.85,0,0,1-7.7-2.14,13.78,13.78,0,0,1-5.15-6,22.62,22.62,0,0,1-2.08-8.92,42.39,42.39,0,0,1,.87-9.54,32.67,32.67,0,0,1,3.63-10.24,23.06,23.06,0,0,1,6.29-7.31,18.09,18.09,0,0,1,11.42-3.57,13.71,13.71,0,0,1,10.72,4.71q3.93,4.57,4.21,12.39a45.4,45.4,0,0,1-.68,8.52,35.27,35.27,0,0,1-2.91,9.6,23.88,23.88,0,0,1-5.31,7.44A18.29,18.29,0,0,1,339.53,397m16.31-29.16q.2-6.29-2.2-9.75a8.4,8.4,0,0,0-7.12-3.59,12.12,12.12,0,0,0-7.64,2.3,17.5,17.5,0,0,0-5.52,7.26,37.46,37.46,0,0,0-2.72,12.23l-.1,2.08q-.19,6.24,2.23,9.79a8.31,8.31,0,0,0,7.05,3.67,12.27,12.27,0,0,0,10-4.36q4-4.5,5.29-12.68a57.44,57.44,0,0,0,.73-6.95"/><path class="cls-3" d="M401.11,390.19a14.65,14.65,0,0,1-6.78,5.05A26.52,26.52,0,0,1,384.17,397a15.92,15.92,0,0,1-8-2.14,14.07,14.07,0,0,1-5.35-5.85,21.64,21.64,0,0,1-2.24-8.66,46.39,46.39,0,0,1,.94-10.28,32.19,32.19,0,0,1,4.07-11.2,20.44,20.44,0,0,1,7.26-7.21,19.06,19.06,0,0,1,10-2.39q6.48.13,10.32,3.84t4.39,10.45h-5.94a10.63,10.63,0,0,0-2.64-6.79,8.88,8.88,0,0,0-6.35-2.49,12.25,12.25,0,0,0-10,4.31q-4,4.54-5.31,13.27l-.61,4.47-.09,2.43q0,6.3,2.58,9.73a8.71,8.71,0,0,0,7.24,3.5q6.74.17,10.69-3.32L397,378.19H386.53l.9-5h16.33Z"/><path class="cls-3" d="M437,384.16H418.18l-6.35,12.15h-6.41l25.24-46.45h5.26l9.19,46.45h-5.9Zm-16.18-5h15.28l-3.86-21.67Z"/><path class="cls-3" d="M471.53,377.55H460.81l-3.26,18.76h-6l8.07-46.45,14,0q7.31,0,11.14,3.7t3.22,10a13.22,13.22,0,0,1-3.18,7.7,17.23,17.23,0,0,1-7.51,5l7.21,19.6,0,.41H478Zm-9.86-5,8.81,0a12.29,12.29,0,0,0,7.75-2.44,9.52,9.52,0,0,0,3.7-6.52q.48-4-1.6-6.26c-1.38-1.51-3.49-2.3-6.31-2.39l-9.29,0Z"/></g></svg>